<svg xmlns="http://www.w3.org/2000/svg" width="1280" height="640" viewBox="0 0 1280 640" role="img" aria-labelledby="title desc">
  <title id="title">FrameScript demo banner</title>
  <desc id="desc">A stylized macOS writing workspace showing scene planning, script text, B-roll notes, editing notes, and AI review.</desc>
  <defs>
    <linearGradient id="bg" x1="0" y1="0" x2="1" y2="1">
      <stop offset="0" stop-color="#f7f4ee"/>
      <stop offset="0.48" stop-color="#eef5f2"/>
      <stop offset="1" stop-color="#f3f0fa"/>
    </linearGradient>
    <filter id="shadow" x="-20%" y="-20%" width="140%" height="140%">
      <feDropShadow dx="0" dy="22" stdDeviation="26" flood-color="#1d1d1f" flood-opacity="0.18"/>
    </filter>
  </defs>

  <rect width="1280" height="640" fill="url(#bg)"/>
  <circle cx="1092" cy="132" r="78" fill="#dbe9de" opacity="0.9"/>
  <circle cx="168" cy="512" r="92" fill="#d9d2ee" opacity="0.55"/>

  <g transform="translate(88 78)">
    <text x="0" y="0" font-family="Inter, SF Pro Display, system-ui, sans-serif" font-size="66" font-weight="760" fill="#17171a">FrameScript</text>
    <text x="0" y="42" font-family="Inter, SF Pro Text, system-ui, sans-serif" font-size="22" fill="#4c4d52">Plan YouTube scripts as scenes, B-roll, edits, AI notes, and duration.</text>
  </g>

  <g filter="url(#shadow)" transform="translate(88 168)">
    <rect x="0" y="0" width="1104" height="378" rx="24" fill="#fbfaf7"/>
    <rect x="0" y="0" width="1104" height="52" rx="24" fill="#24252a"/>
    <circle cx="28" cy="26" r="7" fill="#ff6b60"/>
    <circle cx="52" cy="26" r="7" fill="#ffbd4a"/>
    <circle cx="76" cy="26" r="7" fill="#62c554"/>
    <text x="550" y="34" text-anchor="middle" font-family="SF Pro Text, Inter, system-ui, sans-serif" font-size="15" font-weight="650" fill="#f8f7f2">Demo project: creator workflow</text>

    <rect x="0" y="52" width="238" height="326" fill="#f0eee8"/>
    <text x="26" y="92" font-family="SF Pro Text, Inter, system-ui, sans-serif" font-size="13" font-weight="700" fill="#64666b">SCENES</text>
    <g font-family="SF Pro Text, Inter, system-ui, sans-serif" font-size="16">
      <rect x="18" y="112" width="202" height="48" rx="10" fill="#dbe9de"/>
      <text x="36" y="143" font-weight="700" fill="#1d1e21">01 Hook</text>
      <rect x="18" y="172" width="202" height="44" rx="10" fill="#fbfaf7"/>
      <text x="36" y="200" fill="#3f4146">02 Problem</text>
      <rect x="18" y="228" width="202" height="44" rx="10" fill="#fbfaf7"/>
      <text x="36" y="256" fill="#3f4146">03 Example</text>
      <rect x="18" y="284" width="202" height="44" rx="10" fill="#fbfaf7"/>
      <text x="36" y="312" fill="#3f4146">04 Takeaway</text>
    </g>

    <g transform="translate(266 84)">
      <text x="0" y="0" font-family="SF Pro Text, Inter, system-ui, sans-serif" font-size="13" font-weight="700" fill="#73757a">SCRIPT</text>
      <rect x="0" y="22" width="418" height="232" rx="14" fill="#ffffff" stroke="#dfddd7"/>
      <rect x="24" y="50" width="336" height="14" rx="7" fill="#24252a"/>
      <rect x="24" y="82" width="370" height="12" rx="6" fill="#b9babd"/>
      <rect x="24" y="110" width="302" height="12" rx="6" fill="#c8c9cb"/>
      <rect x="24" y="156" width="360" height="12" rx="6" fill="#b9babd"/>
      <rect x="24" y="184" width="250" height="12" rx="6" fill="#c8c9cb"/>
      <rect x="24" y="218" width="150" height="10" rx="5" fill="#7e9882"/>
      <text x="190" y="229" font-family="SF Pro Text, Inter, system-ui, sans-serif" font-size="12" fill="#73757a">0:42 estimated</text>
    </g>

    <g transform="translate(720 84)" font-family="SF Pro Text, Inter, system-ui, sans-serif">
      <text x="0" y="0" font-size="13" font-weight="700" fill="#73757a">PRODUCTION NOTES</text>
      <rect x="0" y="22" width="336" height="64" rx="14" fill="#ffffff" stroke="#dfddd7"/>
      <text x="20" y="49" font-size="14" font-weight="700" fill="#24252a">B-roll</text>
      <rect x="92" y="40" width="192" height="10" rx="5" fill="#d0d4e8"/>
      <rect x="92" y="60" width="138" height="10" rx="5" fill="#d0d4e8"/>

      <rect x="0" y="106" width="336" height="64" rx="14" fill="#ffffff" stroke="#dfddd7"/>
      <text x="20" y="133" font-size="14" font-weight="700" fill="#24252a">Editing</text>
      <rect x="92" y="124" width="216" height="10" rx="5" fill="#dbe9de"/>
      <rect x="92" y="144" width="162" height="10" rx="5" fill="#dbe9de"/>

      <rect x="0" y="190" width="336" height="64" rx="14" fill="#ffffff" stroke="#dfddd7"/>
      <text x="20" y="217" font-size="14" font-weight="700" fill="#24252a">AI review</text>
      <rect x="92" y="208" width="204" height="10" rx="5" fill="#ead9c8"/>
      <rect x="92" y="228" width="150" height="10" rx="5" fill="#ead9c8"/>
    </g>
  </g>
</svg>
